<svg aria-hidden="true" style="position: absolute; width: 0; height: 0; overflow: hidden;" version="1.1" xmlns="http://www.w3.org/2000/svg" xmlns:xlink="http://www.w3.org/1999/xlink">
<defs>
<symbol id="icon-close" viewBox="0 0 32 32">
<path fill="none" stroke="#fff" style="stroke: var(--color1, #fff)" stroke-linejoin="miter" stroke-linecap="round" stroke-miterlimit="4" stroke-width="2.6667" d="M26.667 26.667l-21.333-21.333M26.667 5.333l-21.333 21.333"></path>
</symbol>
<svg aria-hidden="true" style="position: absolute; width: 0; height: 0; overflow: hidden;" version="1.1" xmlns="http://www.w3.org/2000/svg" xmlns:xlink="http://www.w3.org/1999/xlink">
<defs>
<symbol id="icon-cart" fill="#fff" viewBox="0 0 31 32">
<path d="M7 8.040c0-0.142 0.056-0.277 0.156-0.377s0.236-0.156 0.377-0.156h1.6c0.119 0 0.235 0.040 0.328 0.113s0.16 0.176 0.189 0.291l0.432 1.731h12.384c0.078 0 0.156 0.017 0.227 0.051s0.134 0.082 0.183 0.142 0.086 0.131 0.106 0.207c0.020 0.076 0.022 0.155 0.008 0.232l-1.6 8.541c-0.023 0.122-0.088 0.233-0.183 0.312s-0.216 0.123-0.34 0.123h-9.6c-0.124-0-0.245-0.044-0.34-0.123s-0.161-0.19-0.183-0.312l-1.599-8.525-0.427-1.716h-1.184c-0.141 0-0.277-0.056-0.377-0.156s-0.156-0.236-0.156-0.377zM10.309 10.709l1.401 7.474h8.715l1.401-7.474h-11.516zM12.334 19.25c-0.566 0-1.108 0.225-1.508 0.625s-0.625 0.944-0.625 1.51c0 0.566 0.225 1.11 0.625 1.51s0.943 0.625 1.508 0.625 1.108-0.225 1.508-0.625c0.4-0.4 0.625-0.944 0.625-1.51s-0.225-1.109-0.625-1.51c-0.4-0.401-0.943-0.625-1.508-0.625zM19.8 19.25c-0.566 0-1.108 0.225-1.509 0.625s-0.625 0.944-0.625 1.51c0 0.566 0.225 1.11 0.625 1.51s0.943 0.625 1.509 0.625 1.108-0.225 1.509-0.625c0.4-0.4 0.625-0.944 0.625-1.51s-0.225-1.109-0.625-1.51c-0.4-0.401-0.943-0.625-1.509-0.625zM12.334 20.318c0.283 0 0.554 0.113 0.754 0.313s0.312 0.472 0.312 0.755c0 0.283-0.112 0.555-0.312 0.755s-0.471 0.313-0.754 0.313-0.554-0.113-0.754-0.313c-0.2-0.2-0.312-0.472-0.312-0.755s0.112-0.555 0.312-0.755c0.2-0.2 0.471-0.313 0.754-0.313zM19.8 20.318c0.283 0 0.554 0.113 0.754 0.313s0.312 0.472 0.312 0.755c0 0.283-0.112 0.555-0.312 0.755s-0.471 0.313-0.754 0.313-0.554-0.113-0.754-0.313c-0.2-0.2-0.312-0.472-0.312-0.755s0.112-0.555 0.312-0.755c0.2-0.2 0.471-0.313 0.754-0.313v0z"></path>
<path fill="none" opacity="0.75" stroke="#fff" style="stroke: var(--color1, #fff)" stroke-linejoin="miter" stroke-linecap="butt" stroke-miterlimit="4" stroke-width="1" d="M30.5 15.769c0 8.441-6.724 15.269-15 15.269s-15-6.828-15-15.269c0-8.441 6.724-15.269 15-15.269s15 6.828 15 15.269z"></path>
</symbol>
</defs>
</svg>
<svg aria-hidden="true" style="position: absolute; width: 0; height: 0; overflow: hidden;" version="1.1" xmlns="http://www.w3.org/2000/svg" xmlns:xlink="http://www.w3.org/1999/xlink">
<defs>
<symbol id="icon-cart-main" fill="#000" viewBox="0 0 31 32">
<path d="M7 8.040c0-0.142 0.056-0.277 0.156-0.377s0.236-0.156 0.377-0.156h1.6c0.119 0 0.235 0.040 0.328 0.113s0.16 0.176 0.189 0.291l0.432 1.731h12.384c0.078 0 0.156 0.017 0.227 0.051s0.134 0.082 0.183 0.142 0.086 0.131 0.106 0.207c0.020 0.076 0.022 0.155 0.008 0.232l-1.6 8.541c-0.023 0.122-0.088 0.233-0.183 0.312s-0.216 0.123-0.34 0.123h-9.6c-0.124-0-0.245-0.044-0.34-0.123s-0.161-0.19-0.183-0.312l-1.599-8.525-0.427-1.716h-1.184c-0.141 0-0.277-0.056-0.377-0.156s-0.156-0.236-0.156-0.377zM10.309 10.709l1.401 7.474h8.715l1.401-7.474h-11.516zM12.334 19.25c-0.566 0-1.108 0.225-1.508 0.625s-0.625 0.944-0.625 1.51c0 0.566 0.225 1.11 0.625 1.51s0.943 0.625 1.508 0.625 1.108-0.225 1.508-0.625c0.4-0.4 0.625-0.944 0.625-1.51s-0.225-1.109-0.625-1.51c-0.4-0.401-0.943-0.625-1.508-0.625zM19.8 19.25c-0.566 0-1.108 0.225-1.509 0.625s-0.625 0.944-0.625 1.51c0 0.566 0.225 1.11 0.625 1.51s0.943 0.625 1.509 0.625 1.108-0.225 1.509-0.625c0.4-0.4 0.625-0.944 0.625-1.51s-0.225-1.109-0.625-1.51c-0.4-0.401-0.943-0.625-1.509-0.625zM12.334 20.318c0.283 0 0.554 0.113 0.754 0.313s0.312 0.472 0.312 0.755c0 0.283-0.112 0.555-0.312 0.755s-0.471 0.313-0.754 0.313-0.554-0.113-0.754-0.313c-0.2-0.2-0.312-0.472-0.312-0.755s0.112-0.555 0.312-0.755c0.2-0.2 0.471-0.313 0.754-0.313zM19.8 20.318c0.283 0 0.554 0.113 0.754 0.313s0.312 0.472 0.312 0.755c0 0.283-0.112 0.555-0.312 0.755s-0.471 0.313-0.754 0.313-0.554-0.113-0.754-0.313c-0.2-0.2-0.312-0.472-0.312-0.755s0.112-0.555 0.312-0.755c0.2-0.2 0.471-0.313 0.754-0.313v0z"></path>
<path fill="none" opacity="0.75" stroke="#000" style="stroke: var(--color1, #000)" stroke-linejoin="miter" stroke-linecap="butt" stroke-miterlimit="4" stroke-width="1" d="M30.5 15.769c0 8.441-6.724 15.269-15 15.269s-15-6.828-15-15.269c0-8.441 6.724-15.269 15-15.269s15 6.828 15 15.269z"></path>
</symbol>
</defs>
</svg>
<svg aria-hidden="true" fill="#fff" style="position: absolute; width: 0; height: 0; overflow: hidden;" version="1.1" xmlns="http://www.w3.org/2000/svg" xmlns:xlink="http://www.w3.org/1999/xlink">
<defs>
<symbol id="icon-user"  viewBox="0 0 32 32">
<path fill="#fff" d="M28.5 16c0-0.002 0-0.005 0-0.008 0-6.904-5.596-12.5-12.5-12.5s-12.5 5.596-12.5 12.5c0 3.66 1.573 6.952 4.079 9.238l0.010 0.009c0.030 0.036 0.065 0.067 0.103 0.093l0.002 0.001c2.195 1.966 5.11 3.167 8.306 3.167s6.111-1.202 8.318-3.178l-0.012 0.010c0.040-0.027 0.075-0.058 0.104-0.093l0.001-0.001c2.516-2.29 4.089-5.578 4.089-9.234 0-0.002 0-0.004 0-0.005v0zM4.5 16c0-0.002 0-0.005 0-0.008 0-6.351 5.149-11.5 11.5-11.5s11.5 5.149 11.5 11.5c0 3.168-1.281 6.037-3.354 8.117l0-0c-1.241-2.053-3.188-3.574-5.497-4.239l-0.067-0.016c1.749-0.944 2.917-2.764 2.917-4.856 0-3.038-2.462-5.5-5.5-5.5s-5.5 2.462-5.5 5.5c0 2.092 1.168 3.912 2.888 4.841l0.029 0.014c-2.376 0.681-4.322 2.202-5.54 4.213l-0.024 0.042c-2.072-2.074-3.354-4.938-3.354-8.102 0-0.002 0-0.005 0-0.007v0zM16 19.5c-2.485 0-4.5-2.015-4.5-4.5s2.015-4.5 4.5-4.5c2.485 0 4.5 2.015 4.5 4.5v0c-0.003 2.484-2.016 4.497-4.5 4.5h-0zM8.608 24.802c1.49-2.588 4.241-4.302 7.392-4.302s5.902 1.714 7.37 4.261l0.022 0.041c-1.982 1.678-4.568 2.698-7.392 2.698s-5.41-1.020-7.409-2.712l0.017 0.014z"></path>
</symbol>
</defs>
</svg>
<svg aria-hidden="true" fill="#000" style="position: absolute; width: 0; height: 0; overflow: hidden;" version="1.1" xmlns="http://www.w3.org/2000/svg" xmlns:xlink="http://www.w3.org/1999/xlink">
<defs>
<symbol id="icon-user-main"  viewBox="0 0 32 32">
<path fill="#000" d="M28.5 16c0-0.002 0-0.005 0-0.008 0-6.904-5.596-12.5-12.5-12.5s-12.5 5.596-12.5 12.5c0 3.66 1.573 6.952 4.079 9.238l0.010 0.009c0.030 0.036 0.065 0.067 0.103 0.093l0.002 0.001c2.195 1.966 5.11 3.167 8.306 3.167s6.111-1.202 8.318-3.178l-0.012 0.010c0.040-0.027 0.075-0.058 0.104-0.093l0.001-0.001c2.516-2.29 4.089-5.578 4.089-9.234 0-0.002 0-0.004 0-0.005v0zM4.5 16c0-0.002 0-0.005 0-0.008 0-6.351 5.149-11.5 11.5-11.5s11.5 5.149 11.5 11.5c0 3.168-1.281 6.037-3.354 8.117l0-0c-1.241-2.053-3.188-3.574-5.497-4.239l-0.067-0.016c1.749-0.944 2.917-2.764 2.917-4.856 0-3.038-2.462-5.5-5.5-5.5s-5.5 2.462-5.5 5.5c0 2.092 1.168 3.912 2.888 4.841l0.029 0.014c-2.376 0.681-4.322 2.202-5.54 4.213l-0.024 0.042c-2.072-2.074-3.354-4.938-3.354-8.102 0-0.002 0-0.005 0-0.007v0zM16 19.5c-2.485 0-4.5-2.015-4.5-4.5s2.015-4.5 4.5-4.5c2.485 0 4.5 2.015 4.5 4.5v0c-0.003 2.484-2.016 4.497-4.5 4.5h-0zM8.608 24.802c1.49-2.588 4.241-4.302 7.392-4.302s5.902 1.714 7.37 4.261l0.022 0.041c-1.982 1.678-4.568 2.698-7.392 2.698s-5.41-1.020-7.409-2.712l0.017 0.014z"></path>
</symbol>
</defs>
</svg>
<symbol id="icon-call" viewBox="0 0 32 32">
<path   d="M26.667 14.665h2.667c0-6.84-5.164-11.999-12.013-11.999v2.667c5.416 0 9.347 3.924 9.347 9.332z"></path>
<path   d="M17.333 10.667c2.804 0 4 1.196 4 4h2.667c0-4.3-2.367-6.667-6.667-6.667v2.667zM21.896 17.924c-0.256-0.233-0.593-0.357-0.939-0.346s-0.674 0.155-0.916 0.404l-3.191 3.281c-0.768-0.147-2.312-0.628-3.901-2.213-1.589-1.591-2.071-3.139-2.213-3.901l3.279-3.192c0.249-0.241 0.393-0.57 0.404-0.916s-0.114-0.683-0.347-0.939l-4.927-5.417c-0.233-0.257-0.557-0.413-0.904-0.434s-0.687 0.093-0.951 0.318l-2.893 2.481c-0.231 0.231-0.368 0.539-0.387 0.865-0.020 0.333-0.401 8.229 5.721 14.355 5.341 5.34 12.032 5.731 13.875 5.731 0.269 0 0.435-0.008 0.479-0.011 0.326-0.018 0.634-0.156 0.864-0.388l2.48-2.895c0.226-0.263 0.34-0.604 0.319-0.951s-0.177-0.671-0.434-0.904l-5.419-4.928z"></path>
</symbol>
<symbol id="icon-location" viewBox="0 0 32 32">
<path   d="M16 2c-2.916 0.003-5.712 1.163-7.774 3.226s-3.222 4.858-3.226 7.774c-0.003 2.383 0.775 4.702 2.216 6.6 0 0 0.3 0.395 0.349 0.452l8.435 9.948 8.439-9.953c0.044-0.053 0.345-0.447 0.345-0.447l0.001-0.003c1.44-1.897 2.218-4.215 2.215-6.597-0.003-2.916-1.163-5.712-3.226-7.774s-4.858-3.222-7.774-3.226zM16 17c-0.791 0-1.565-0.235-2.222-0.674s-1.171-1.064-1.473-1.795c-0.303-0.731-0.382-1.535-0.228-2.311s0.535-1.489 1.095-2.048c0.559-0.559 1.272-0.94 2.048-1.095s1.58-0.075 2.311 0.228c0.731 0.303 1.356 0.815 1.795 1.473s0.674 1.431 0.674 2.222c-0.001 1.060-0.423 2.077-1.173 2.827s-1.766 1.172-2.827 1.173z"></path>
</symbol>
<symbol id="icon-menu" viewBox="0 0 32 32">
<path fill="#000" d="M28 24h-10.667c-0.736 0-1.333-0.597-1.333-1.333s0.597-1.333 1.333-1.333h10.667v2.667zM28 17.333h-22.667c-0.736 0-1.333-0.597-1.333-1.333s0.597-1.333 1.333-1.333h22.667v2.667zM28 10.667h-22.667c-0.736 0-1.333-0.597-1.333-1.333s0.597-1.333 1.333-1.333h22.667v2.667z"></path>
</symbol>
<svg aria-hidden="true" style="position: absolute; width: 0; height: 0; overflow: hidden;" version="1.1" xmlns="http://www.w3.org/2000/svg" xmlns:xlink="http://www.w3.org/1999/xlink">
<defs>
<symbol id="icon-email" viewBox="0 0 32 32">
<path  d="M29.333 5.333h-26.667v21.333h26.667v-21.333zM26.667 10.667l-10.667 6.667-10.667-6.667v-2.667l10.667 6.667 10.667-6.667v2.667z"></path>
</symbol>
</defs>
</svg>


<symbol id="icon-sosial-1" viewBox="0 0 32 32">
<path   d="M32 16c0 8.837-7.163 16-16 16s-16-7.163-16-16c0-8.837 7.163-16 16-16s16 7.163 16 16z"></path>
<path fill="#fff" d="M24.533 11.12c-0.588 0.25-1.229 0.43-1.888 0.5 0.685-0.401 1.197-1.033 1.442-1.78-0.643 0.376-1.347 0.64-2.081 0.78-0.307-0.323-0.678-0.58-1.090-0.756s-0.857-0.266-1.306-0.265c-1.817 0-3.278 1.45-3.278 3.23 0 0.25 0.031 0.5 0.081 0.74-2.721-0.14-5.147-1.42-6.761-3.38-0.294 0.494-0.448 1.057-0.446 1.63 0 1.121 0.579 2.109 1.461 2.691-0.52-0.020-1.028-0.161-1.482-0.411v0.040c0 1.57 1.127 2.871 2.628 3.17-0.282 0.072-0.572 0.109-0.863 0.11-0.213 0-0.415-0.021-0.619-0.049 0.415 1.28 1.625 2.21 3.065 2.24-1.127 0.869-2.538 1.38-4.071 1.38-0.275 0-0.529-0.009-0.792-0.040 1.454 0.918 3.178 1.448 5.036 1.448 6.030 0 9.33-4.919 9.33-9.189 0-0.14 0-0.28-0.010-0.42 0.638-0.46 1.198-1.030 1.644-1.67z"></path>
</symbol>

<symbol id="icon-sosial-2" viewBox="0 0 32 32">
<path d="M32 16c0 8.837-7.163 16-16 16s-16-7.163-16-16c0-8.837 7.163-16 16-16s16 7.163 16 16z"></path>
<path fill="#fff"   d="M13.235 7.515c0.853-0.039 1.125-0.048 3.298-0.048s2.445 0.009 3.297 0.048c0.852 0.039 1.434 0.175 1.943 0.372 0.533 0.201 1.017 0.516 1.417 0.924 0.407 0.399 0.721 0.882 0.922 1.416 0.198 0.509 0.333 1.091 0.372 1.942 0.039 0.855 0.048 1.127 0.048 3.299s-0.009 2.445-0.048 3.298c-0.039 0.851-0.175 1.433-0.372 1.942-0.201 0.534-0.515 1.018-0.922 1.417-0.4 0.407-0.884 0.721-1.417 0.922-0.509 0.198-1.091 0.333-1.942 0.372-0.854 0.039-1.126 0.048-3.299 0.048s-2.445-0.009-3.298-0.048c-0.851-0.039-1.433-0.175-1.942-0.372-0.534-0.201-1.018-0.516-1.417-0.922-0.407-0.399-0.722-0.883-0.923-1.417-0.197-0.509-0.332-1.091-0.372-1.942-0.039-0.855-0.048-1.127-0.048-3.299s0.009-2.445 0.048-3.297 0.175-1.434 0.372-1.943c0.201-0.534 0.516-1.017 0.924-1.417 0.399-0.407 0.883-0.722 1.416-0.923 0.509-0.197 1.091-0.332 1.942-0.372h0.001zM19.766 8.955c-0.844-0.039-1.097-0.047-3.233-0.047s-2.389 0.008-3.233 0.047c-0.78 0.036-1.204 0.166-1.486 0.276-0.373 0.145-0.64 0.318-0.92 0.598-0.265 0.258-0.47 0.573-0.598 0.92-0.11 0.282-0.24 0.706-0.276 1.486-0.039 0.844-0.047 1.097-0.047 3.233s0.008 2.389 0.047 3.233c0.036 0.78 0.166 1.204 0.276 1.486 0.128 0.347 0.332 0.662 0.598 0.92 0.258 0.265 0.573 0.47 0.92 0.598 0.282 0.11 0.706 0.24 1.486 0.276 0.844 0.038 1.096 0.047 3.233 0.047s2.389-0.008 3.233-0.047c0.78-0.036 1.204-0.166 1.486-0.276 0.373-0.145 0.64-0.318 0.92-0.598 0.265-0.258 0.47-0.573 0.598-0.92 0.11-0.282 0.24-0.706 0.276-1.486 0.038-0.844 0.047-1.097 0.047-3.233s-0.008-2.389-0.047-3.233c-0.036-0.78-0.166-1.204-0.276-1.486-0.145-0.373-0.318-0.64-0.598-0.92-0.258-0.265-0.573-0.47-0.92-0.598-0.282-0.11-0.705-0.24-1.486-0.276zM15.511 17.933c0.571 0.238 1.206 0.27 1.798 0.091s1.103-0.558 1.446-1.072c0.343-0.514 0.498-1.131 0.437-1.746s-0.334-1.19-0.772-1.626c-0.279-0.279-0.617-0.493-0.988-0.625s-0.768-0.182-1.161-0.143c-0.393 0.039-0.772 0.164-1.11 0.367s-0.628 0.478-0.847 0.806c-0.219 0.328-0.363 0.701-0.421 1.091s-0.029 0.789 0.086 1.166c0.114 0.378 0.311 0.725 0.576 1.018s0.591 0.522 0.956 0.674zM13.626 12.559c0.382-0.382 0.835-0.685 1.334-0.891s1.034-0.313 1.574-0.313c0.54 0 1.075 0.106 1.574 0.313s0.952 0.51 1.334 0.891c0.382 0.382 0.685 0.835 0.891 1.334s0.313 1.034 0.313 1.574c0 0.54-0.106 1.075-0.313 1.574s-0.51 0.952-0.891 1.334c-0.771 0.771-1.817 1.204-2.908 1.204s-2.137-0.433-2.908-1.204c-0.771-0.771-1.204-1.817-1.204-2.908s0.433-2.137 1.204-2.908zM21.557 11.967c0.095-0.089 0.17-0.197 0.223-0.316s0.080-0.247 0.082-0.377c0.002-0.13-0.022-0.259-0.071-0.38s-0.122-0.23-0.214-0.322c-0.092-0.092-0.201-0.165-0.322-0.213s-0.25-0.073-0.38-0.071c-0.13 0.002-0.258 0.030-0.378 0.082s-0.226 0.128-0.316 0.223c-0.174 0.184-0.269 0.428-0.265 0.681s0.106 0.495 0.285 0.673 0.42 0.281 0.673 0.285c0.253 0.004 0.497-0.091 0.681-0.265z"></path>
</symbol>
<svg aria-hidden="true" style="position: absolute; width: 0; height: 0; overflow: hidden;" version="1.1" xmlns="http://www.w3.org/2000/svg" xmlns:xlink="http://www.w3.org/1999/xlink">
<defs>
<symbol id="icon-unchecked" viewBox="0 0 32 32">
<path fill="#e0e0e0" style="fill: var(--color1, #e0e0e0)" d="M0 16c0-4.243 1.686-8.313 4.686-11.314s7.070-4.686 11.314-4.686c4.243 0 8.313 1.686 11.314 4.686s4.686 7.070 4.686 11.314c0 4.243-1.686 8.313-4.686 11.314s-7.070 4.686-11.314 4.686c-4.243 0-8.313-1.686-11.314-4.686s-4.686-7.070-4.686-11.314z"></path>
</symbol>
<symbol id="icon-checked" viewBox="0 0 32 32">
<path d="M0 16c0-4.243 1.686-8.313 4.686-11.314s7.070-4.686 11.314-4.686c4.243 0 8.313 1.686 11.314 4.686s4.686 7.070 4.686 11.314c0 4.243-1.686 8.313-4.686 11.314s-7.070 4.686-11.314 4.686c-4.243 0-8.313-1.686-11.314-4.686s-4.686-7.070-4.686-11.314zM15.087 22.848l9.212-11.516-1.664-1.331-7.855 9.815-5.564-4.636-1.365 1.638 7.236 6.029z"></path>
</symbol>
</defs>
</svg>

<symbol id="icon-sosial-3" viewBox="0 0 32 32">
<path  d="M32 16c0 8.837-7.163 16-16 16s-16-7.163-16-16c0-8.837 7.163-16 16-16s16 7.163 16 16z"></path>
<path fill="#fff"  d="M22.078 11.551c-1.037-0.416-2.132-0.714-3.257-0.884-0.010-0.002-0.021-0-0.030 0.004s-0.017 0.010-0.022 0.018c-0.141 0.219-0.297 0.505-0.406 0.729-1.212-0.161-2.446-0.161-3.658 0-0.122-0.249-0.259-0.493-0.412-0.729-0.005-0.008-0.013-0.014-0.022-0.018s-0.020-0.005-0.030-0.004c-1.125 0.17-2.22 0.467-3.257 0.884-0.009 0.003-0.016 0.009-0.021 0.016-2.074 2.71-2.643 5.354-2.364 7.965 0.001 0.012 0.010 0.024 0.021 0.032 1.208 0.782 2.559 1.38 3.995 1.767 0.010 0.003 0.021 0.003 0.031-0s0.019-0.009 0.025-0.016c0.308-0.367 0.582-0.755 0.818-1.162 0.005-0.008 0.007-0.018 0.005-0.027s-0.007-0.018-0.015-0.024c-0.005-0.004-0.011-0.007-0.018-0.010-0.431-0.145-0.848-0.319-1.248-0.52-0.011-0.006-0.020-0.015-0.023-0.025s-0.003-0.022 0.003-0.032c0.003-0.006 0.009-0.012 0.015-0.017 0.084-0.055 0.168-0.113 0.248-0.171 0.007-0.005 0.016-0.008 0.025-0.009s0.018 0 0.026 0.003c2.619 1.046 5.454 1.046 8.041 0 0.009-0.003 0.018-0.004 0.027-0.003s0.018 0.004 0.026 0.009c0.080 0.058 0.164 0.115 0.248 0.171 0.007 0.004 0.012 0.010 0.016 0.017s0.005 0.014 0.005 0.021-0.003 0.015-0.007 0.021c-0.004 0.006-0.010 0.012-0.018 0.015-0.399 0.203-0.817 0.377-1.249 0.519-0.007 0.002-0.013 0.006-0.018 0.010s-0.009 0.010-0.012 0.016c-0.002 0.006-0.003 0.012-0.003 0.018s0.002 0.012 0.006 0.018c0.24 0.407 0.515 0.795 0.817 1.162 0.006 0.008 0.015 0.013 0.025 0.016s0.021 0.003 0.031 0c1.439-0.386 2.792-0.983 4.001-1.767 0.006-0.004 0.011-0.008 0.015-0.014s0.006-0.012 0.006-0.018c0.334-3.018-0.559-5.64-2.366-7.964-0.002-0.004-0.005-0.007-0.008-0.010s-0.008-0.005-0.012-0.007zM13.88 17.942c-0.789 0-1.438-0.633-1.438-1.41s0.637-1.411 1.438-1.411c0.807 0 1.45 0.639 1.438 1.411 0 0.777-0.637 1.41-1.438 1.41zM19.196 17.942c-0.788 0-1.438-0.633-1.438-1.41s0.637-1.411 1.438-1.411c0.807 0 1.451 0.639 1.438 1.411 0 0.777-0.631 1.41-1.438 1.41z"></path>
</symbol>
</defs>
</svg>